<svg xmlns="http://www.w3.org/2000/svg" viewBox="0 0 200.4 66.5"><style>.lenovo-0{fill:#8c98a4}</style><path id="n_1_" class="lenovo-0" d="M80.4 21.2c-3.5 0-7.4 1.6-9.8 4.8v-4.3h-8.2v30h8.2V34.6c0-3.1 2.4-6.3 6.8-6.3 3.4 0 6.9 2.4 6.9 6.3v17.1h8.2V33.1c.1-6.9-4.8-11.9-12.1-11.9z"/><path id="v" class="lenovo-0" d="M151.2 21.7l-7.4 20.4-7.5-20.4h-9.4l12.4 30h9l12.3-30z"/><path id="e_1_" class="lenovo-0" d="M55.8 26.1c-2.8-3.2-6.9-4.9-11.9-4.9-9.1 0-15.9 6.7-15.9 15.5 0 9.1 6.9 15.5 16.8 15.5 5.6 0 11.3-2.6 14-5.7l-5.2-4c-3.4 2.5-5.4 3.2-8.6 3.2-2.8 0-5.1-.9-6.6-2.4l21.1-8.7c-.5-3.4-1.8-6.3-3.7-8.5zM36.1 37.9c-.4-3.1.4-5.5 1.7-7.2 1.4-1.9 3.6-3 6.3-3 3 0 5.2 1.7 6.4 4.2l-14.4 6z"/><path id="l_1_" class="lenovo-0" d="M8.6 12.7H.2v39h27.1v-7.6H8.6z"/><path id="o_4_" class="lenovo-0" d="M175.6 21.2c-9.1 0-16.2 6.8-16.2 15.5 0 8.8 7.1 15.5 16.1 15.5 9.1 0 16.2-6.8 16.2-15.5-.1-8.8-7.1-15.5-16.1-15.5zm0 23.9c-4.5 0-8.1-3.7-8.1-8.5 0-5 3.3-8.5 7.9-8.5 4.5 0 8.1 3.7 8.1 8.5 0 5-3.3 8.5-7.9 8.5z"/><path id="o_3_" class="lenovo-0" d="M112.1 21.2c-9.1 0-16.2 6.8-16.2 15.5 0 8.8 7.1 15.5 16.1 15.5 9.1 0 16.2-6.8 16.2-15.5 0-8.8-7.1-15.5-16.1-15.5zm0 23.9c-4.5 0-8.1-3.7-8.1-8.5 0-5 3.3-8.5 7.9-8.5 4.5 0 8.1 3.7 8.1 8.5 0 5-3.3 8.5-7.9 8.5z"/><path id="t" class="lenovo-0" d="M191.4 48.1h1.4v3.6h.8v-3.6h1.3v-.7h-3.5z"/><path id="m_1_" class="lenovo-0" d="M199.3 47.4l-1.3 2-1.3-2h-.9v4.3h.8v-3.1l1.4 2.1h.1l1.3-2.1v3.1h.8v-4.3z"/></svg>