<svg version="1.1" id="Layer_1" xmlns="http://www.w3.org/2000/svg" xmlns:xlink="http://www.w3.org/1999/xlink" x="0" y="0" width="2560" height="150" xml:space="preserve"><style>.st0{fill:none}</style><pattern y="149.25" width="7" height="7" patternUnits="userSpaceOnUse" id="SVGID_2_" viewBox="0 -7 7 7" overflow="visible"><path class="st0" d="M0-7h7v7H0z"/><path class="st0" d="M0-7h7v7H0z"/><path class="st0" d="M0-7h7v7H0z"/><path class="st0" d="M0-7h7v7H0z"/><circle cx="3.5" cy="-3.5" r="1.4" opacity=".07"/></pattern><pattern id="SVGID_1_" xlink:href="#SVGID_2_" patternTransform="matrix(1 0 0 -1.0007 -4 -32787.441)"/><path d="M2537.5 149.25c-101.27-19.81-132.8-28.75-237.5-24.45-1178.9 48.03-1613.17 9.74-1970.26-74.05C207.97 19.54 81.11.75.11.75l-.31 148.5h2537.7z" fill="url(#SVGID_1_)"/><path d="M2560 .83c-412.62 44.25-1150.36 143.2-1598.07 143.2-322.02 0-735.68-54.95-961.84-86.69-.2 16.89 0-25.25 0 92.66H2560.4c-.1-135.4-.4-130.78-.4-149.17z" fill="#f7f7f7"/></svg>