<svg version="1.1" id="Layer_1" xmlns="http://www.w3.org/2000/svg" xmlns:xlink="http://www.w3.org/1999/xlink" x="0" y="0" width="2560" height="220" xml:space="preserve"><style>.st0{fill:none}</style><pattern y="221.12" width="7" height="7" patternUnits="userSpaceOnUse" id="SVGID_2_" viewBox="0 -7 7 7" overflow="visible"><path class="st0" d="M0-7h7v7H0z"/><path class="st0" d="M0-7h7v7H0z"/><path class="st0" d="M0-7h7v7H0z"/><circle cx="3.5" cy="-3.5" r="1.4" fill="#ececec"/></pattern><pattern id="SVGID_1_" xlink:href="#SVGID_2_" patternTransform="rotate(180 -21388.69 -16047.651)"/><path d="M.2 0c25.7 68.9 103.2 79.33 181.1 78.03 341.33-5.55 696.01-99.61 1045.45-63.02C1695.6 64.1 2155.02 127.11 2560.1 139.6V0H.2z" fill="url(#SVGID_1_)"/><path d="M.2 220c656.38 0 1120.7-277.98 2294.2-200.18 44.22 2.92 189.02 18.01 265.7 26.8V0H.2c0 40.8-.2 201.72 0 220z" fill="#f7f7f7"/></svg>